<svg xmlns="http://www.w3.org/2000/svg" viewBox="0 0 419.953 419.953" id="condensed-milk"><path d="M345.867 14.729a17.7 17.7 0 0 0-7.327-11.502A17.695 17.695 0 0 0 325.226.276l-88.241 15.559h-.001l-52.131 9.192a5 5 0 0 0-1.055.072l-39.306 6.987-39.132 6.957-19.866 3.503C77.82 43.9 72.677 51.244 74.029 58.919c2.551 14.467 13.149 25.784 27.032 29.421v21.522c0 13.593 11.059 24.652 24.652 24.652s24.652-11.059 24.652-24.652V99.075a24.518 24.518 0 0 0 14.652 4.841c13.594 0 24.653-11.059 24.653-24.653v-3.08l18.886-3.33a12.66 12.66 0 0 0 8.229-5.243 12.661 12.661 0 0 0 2.112-9.527 2.754 2.754 0 0 1 2.23-3.186l22.056-3.889a5 5 0 0 0 .786-.22l87.443-15.418c9.677-1.705 16.16-10.965 14.455-20.641zM83.877 57.184a4.138 4.138 0 0 1 3.353-4.789l13.832-2.439v27.901C92.196 74.57 85.58 66.841 83.877 57.184zm81.142 36.732c-8.079 0-14.652-6.573-14.652-14.653V64.469a5 5 0 1 0-10 0v45.393c0 8.079-6.573 14.652-14.652 14.652s-14.652-6.573-14.652-14.652V48.193l68.61-12.098v43.168c-.001 8.08-6.574 14.653-14.654 14.653zm54.375-48.866a12.66 12.66 0 0 0-8.229 5.243 12.661 12.661 0 0 0-2.112 9.527 2.754 2.754 0 0 1-2.23 3.186l-17.149 3.024V34.332l44.124-7.78 2.716 15.399-4.527.798.014.079-12.607 2.222zm110.284-19.527-83.319 14.691-2.715-15.399 83.318-14.691c2.061-.36 4.131.098 5.842 1.295s2.853 2.99 3.216 5.046c.748 4.246-2.097 8.309-6.342 9.058zm-30.509 111.726H96.377c-10.989 0-19.93 8.94-19.93 19.93v3.295c0 .319.03.63.074.937-.036.24-.074.481-.074.731v252.811a5 5 0 0 0 5 5h232.651a5 5 0 0 0 5-5V162.142h-.22a6.65 6.65 0 0 0 .22-1.668v-3.295c.001-10.99-8.94-19.93-19.929-19.93zm-202.792 10h202.792c5.463 0 9.909 4.435 9.93 9.894h-.04c-8.288 0-15.031 6.743-15.031 15.031v100.838c0 4.104-1.761 8.055-4.83 10.841-3.102 2.816-7.11 4.143-11.272 3.741-7.403-.718-13.202-7.321-13.202-15.035V172.173c0-8.288-6.743-15.031-15.031-15.031s-15.031 6.743-15.031 15.031v52.875c0 4.103-1.761 8.055-4.83 10.841-3.104 2.816-7.107 4.143-11.273 3.741-7.402-.718-13.201-7.322-13.201-15.035v-52.421c0-8.288-6.743-15.031-15.031-15.031H86.447c.021-5.459 4.467-9.894 9.93-9.894zm-9.93 19.894h103.877a5.037 5.037 0 0 1 5.031 5.031v23.669c-34.898.977-64.613 22.968-76.927 53.754H86.447v-82.454zm168.276 50.405a85.561 85.561 0 0 0-10.062-7.749v-37.626c0-2.774 2.257-5.031 5.031-5.031s5.031 2.257 5.031 5.031v45.375zm-10.063 7.5v-2.93a75.642 75.642 0 0 1 10.062 9.651v30.982l-4.963-4.036-4.786-4.081a82.017 82.017 0 0 1-9.935-10.085 24.643 24.643 0 0 0 1.512-1.255c5.154-4.678 8.11-11.329 8.11-18.246zm-18.879 23.944a92.09 92.09 0 0 0 12.705 13.251l4.827 4.116 3.244-3.805-3.154 3.879 7.604 6.184-.882.618a7.031 7.031 0 0 1-8.974-.764 10.204 10.204 0 0 0-10.252-2.462 10.206 10.206 0 0 0-6.981 7.901l-5.572 30.237a13.704 13.704 0 0 0-7.924-2.521h-25.298c-2.959 0-5.696.945-7.945 2.537l-5.571-30.233a10.208 10.208 0 0 0-6.98-7.902 10.207 10.207 0 0 0-10.253 2.462 7.018 7.018 0 0 1-8.952.744l-.883-.618 7.604-6.184-3.154-3.879 3.248 3.802 4.841-4.135a92.129 92.129 0 0 0 14.729-15.954l4.96-6.845a7.119 7.119 0 0 1 5.799-3h15.751c3.809 7.172 10.935 12.353 19.274 13.161 2.768.27 5.534.055 8.189-.59zm-11.564 77.02h-32.888v-6.589a3.799 3.799 0 0 1 3.795-3.795h25.298a3.8 3.8 0 0 1 3.795 3.795v6.589zm-127.77-66.416h28.668a85.247 85.247 0 0 0-2.778 21.621 84.952 84.952 0 0 0 6.192 31.875H86.447v-53.496zm35.89 21.621c0-40.785 32.54-74.091 73.019-75.375v18.753c0 .614.029 1.222.073 1.827h-12.863c-5.539 0-10.758 2.699-13.928 7.176l-4.928 6.8a82.119 82.119 0 0 1-13.129 14.219l-4.807 4.106-10.322 8.394c-1.791 1.457-2.771 3.615-2.688 5.922s1.215 4.39 3.104 5.714l3.812 2.672c6.723 4.711 15.852 3.955 21.704-1.805.056-.054.102-.098.229-.055.132.042.143.102.157.178l9.614 52.175a4.965 4.965 0 0 0 1.402 2.624l.01.009c.215.213.447.405.698.576l.067.047c.235.155.483.289.742.403.038.017.074.037.113.053.262.107.533.191.814.253.037.008.072.022.109.03.313.061.634.099.963.099h42.912c.324 0 .64-.036.948-.096.109-.021.211-.058.317-.086.195-.051.387-.104.573-.178.117-.046.227-.104.339-.159.164-.08.324-.163.478-.259.108-.068.209-.141.311-.217a5.049 5.049 0 0 0 .681-.605c.125-.133.238-.275.348-.421.074-.099.148-.196.215-.301.099-.155.182-.32.264-.487.055-.112.115-.22.161-.337.072-.179.122-.368.173-.557.031-.115.072-.225.095-.344.003-.016.01-.031.013-.047l9.618-52.195c.015-.076.025-.136.157-.177.127-.042.175 0 .249.075a17.02 17.02 0 0 0 21.705 1.805l.384-.269c2.593 7.121 8.286 12.827 15.414 15.244-7.099 34.653-38.071 60.252-73.889 60.252-41.591-.001-75.431-33.841-75.431-75.436zm159.3 16.333a24.728 24.728 0 0 0 14.282-6.293c5.152-4.678 8.108-11.328 8.108-18.246v-13.416h5.071v53.497h-32.064a84.908 84.908 0 0 0 4.603-15.542zm27.462-47.954h-5.071v-77.422a5.037 5.037 0 0 1 5.031-5.031h.04v82.453zM86.447 409.953v-14.668h222.651v14.668H86.447zm222.652-24.668H86.447v-62.192h36.899c14.673 25.974 42.527 43.56 74.427 43.56a85.368 85.368 0 0 0 56.261-21.138 85.643 85.643 0 0 0 18.197-22.422h36.868v62.192z"></path></svg>